<svg xmlns="http://www.w3.org/2000/svg" xmlns:xlink="http://www.w3.org/1999/xlink" version="1.1" x="0px" y="0px" viewBox="0 0 100 125" enable-background="new 0 0 100 100" xml:space="preserve"><path d="M72.978,20.019c0.562-0.95,0.248-2.177-0.703-2.739l-1.721-1.02c-0.311-0.185-0.662-0.279-1.019-0.279  c-0.165,0-0.333,0.021-0.497,0.062c-0.514,0.132-0.953,0.463-1.225,0.919l-13.35,22.549c-0.121,0.203-0.221,0.431-0.293,0.668  l-2.183,7.304h-18.9c-2.444,0-4.645,1.483-5.562,3.749c-0.839,2.071-0.891,5.361,1.476,8.382c0.57,0.727,1.213,1.302,1.769,1.774  c-0.363,1.134-1.068,2.233-1.585,3.04c-0.249,0.388-0.458,0.722-0.614,0.992c-1.972,3.44-2.363,7.641-1.102,11.828  c1.881,6.246,7.293,11.882,15.238,15.868c0.085,0.042,0.171,0.083,0.258,0.121l0.384,0.171l0.35,0.185  c0.878,0.464,1.841,0.695,2.803,0.695c1.03,0,2.059-0.265,2.981-0.793l0.224-0.129L50,93.237c0.087-0.038,0.173-0.079,0.257-0.121  c7.947-3.987,13.36-9.623,15.241-15.87c1.261-4.188,0.869-8.388-1.103-11.826c-0.157-0.272-0.366-0.604-0.613-0.99  c-0.518-0.807-1.224-1.906-1.587-3.042c0.556-0.472,1.198-1.046,1.768-1.771c2.37-3.023,2.317-6.313,1.479-8.385  c-0.917-2.266-3.117-3.749-5.562-3.749h-1.63l1.563-5.231L72.978,20.019z M47.567,87.753l-0.572,0.254l-0.491,0.281l-0.532-0.281  l-0.572-0.254c-12.038-6.04-14.354-14.582-11.622-19.348c0.739-1.289,3.232-4.443,3.232-8.394c0-0.053-0.021-0.101-0.025-0.152  h18.999c-0.005,0.052-0.025,0.1-0.025,0.152c0,3.95,2.492,7.104,3.232,8.394C61.924,73.171,59.606,81.713,47.567,87.753z   M59.243,55.912c-0.467,0.596-1.37,1.223-2.113,1.947H35.837c-0.743-0.725-1.646-1.352-2.112-1.947  c-1.068-1.363-0.637-2.43-0.637-2.43H59.88C59.88,53.482,60.312,54.549,59.243,55.912z M54.076,47.482l2.011-6.729  c0.023-0.078,0.056-0.153,0.098-0.224l13.351-22.55L71.256,19L57.968,41.443l-1.805,6.039H54.076z"/><text x="0" y="115" fill="#000000" font-size="5px" font-weight="bold" font-family="'Helvetica Neue', Helvetica, Arial-Unicode, Arial, Sans-serif">Created by Joseph Pearce</text><text x="0" y="120" fill="#000000" font-size="5px" font-weight="bold" font-family="'Helvetica Neue', Helvetica, Arial-Unicode, Arial, Sans-serif">from the Noun Project</text></svg>